#!OML:ASF Y:\EmotionMaleHayes\Project 1\Capture day 1\Session 1\Male1.ASF
:FULLY-SPECIFIED
:DEGREES
145
root -13.6629 15.7007 0.753696 129.024 76.6817 115.754
lowerback 19.2814 -0.995756 -14.9173
upperback 3.6698 -4.12008 -3.40668
thorax -5.91626 -1.58607 5.63354
lowerneck -28.1708 -0.201913 -1.69021
upperneck 8.6112 0.280096 1.27568
head 7.06598 0.261346 0.740508
rclavicle 3.49861e-014 6.83819e-014
rhumerus -88.1549 19.8238 -102.401
rradius 93.5718
rwrist -22.9857
rhand -33.9639 -22.6575
rfingers 7.12502
rthumb -7.14475 -52.5169
lclavicle 3.49861e-014 6.83819e-014
lhumerus -21.3928 -23.1996 92.4414
lradius 101.971
lwrist 14.675
lhand -39.7157 -41.5248
lfingers 7.12502
lthumb -12.6937 -11.9306
rfemur -42.3611 -12.4724 7.71943
rtibia 78.7875
rfoot 166.114 8.27711
rtoes -3.83998
lfemur 1.19361 0.884443 -33.8523
ltibia 33.5323
lfoot -24.7931 -2.74953
ltoes -12.7534
146
root -13.3037 15.8179 0.73908 128.776 76.7326 115.613
lowerback 19.2073 -1.31028 -15.0264
upperback 3.40918 -4.58316 -3.29131
thorax -6.05717 -1.79344 5.92027
lowerneck -28.6018 0.208952 -1.37722
upperneck 9.46188 0.737617 1.02983
head 7.4116 0.456729 0.675727
rclavicle 5.04913e-014 6.20208e-014
rhumerus -90.7524 20.2163 -102.701
rradius 94.2092
rwrist -23.0449
rhand -34.1114 -22.1295
rfingers 7.12502
rthumb -7.28714 -51.984
lclavicle 5.04913e-014 6.20208e-014
lhumerus -20.8074 -23.6122 91.9599
lradius 104.046
lwrist 16.1018
lhand -39.9361 -41.8104
lfingers 7.12502
lthumb -12.9062 -12.2295
rfemur -44.0271 -12.1082 7.93554
rtibia 81.0038
rfoot 161.682 29.5386
rtoes -2.96143
lfemur 3.84816 0.531947 -33.5925
ltibia 30.4674
lfoot -22.5932 -2.95947
ltoes -14.0524
147
root -12.9305 15.9335 0.716154 126.681 76.4392 113.554
lowerback 18.8936 -1.52349 -15.6551
upperback 3.16952 -4.96725 -3.28908
thorax -6.0196 -1.96302 6.33083
lowerneck -28.8168 0.662251 -1.10394
upperneck 10.0635 1.26518 0.810694
head 7.64437 0.687648 0.636252
rclavicle -2.50469e-014 -4.29375e-014
rhumerus -93.1907 20.539 -102.853
rradius 94.8312
rwrist -23.2782
rhand -34.1113 -21.7186
rfingers 7.12502
rthumb -7.28698 -51.5731
lclavicle -2.50469e-014 -4.29375e-014
lhumerus -20.4536 -24.0278 91.4583
lradius 106.043
lwrist 17.5296
lhand -40.0509 -42.6006
lfingers 7.12502
lthumb -13.0168 -13.0267
rfemur -45.4961 -11.8652 7.41163
rtibia 84.2386
rfoot 153.591 50.1964
rtoes -0.618699
lfemur 6.31306 0.339511 -34.0662
ltibia 27.6455
lfoot -19.8157 -2.53524
ltoes -15.4148
148
root -12.5477 16.0516 0.696961 124.033 75.9807 111.075
lowerback 18.6288 -1.66604 -16.5196
upperback 3.00555 -5.29525 -3.34621
thorax -5.91045 -2.1049 6.78687
lowerneck -29.1431 1.09151 -0.822983
upperneck 10.7455 1.75359 0.632735
head 7.92533 0.903514 0.607495
rclavicle -4.81059e-014 -9.38264e-014
rhumerus -95.4146 20.7381 -102.976
rradius 95.3093
rwrist -23.5303
rhand -34.1053 -21.0171
rfingers 7.12502
rthumb -7.2812 -50.8719
lclavicle -4.81059e-014 -9.38264e-014
lhumerus -20.1539 -24.498 90.947
lradius 107.733
lwrist 18.7102
lhand -40.0727 -43.251
lfingers 7.12502
lthumb -13.0379 -13.6785
rfemur -46.5558 -11.6391 6.72045
rtibia 87.4792
rfoot 133.036 69.6654
rtoes -0.686536
lfemur 8.67566 0.0314098 -34.808
ltibia 25.2988
lfoot -15.8103 -1.83416
ltoes -11.3439
149
root -12.1507 16.173 0.683506 121.736 75.7385 109.114
lowerback 18.443 -1.77549 -17.0921
upperback 2.88637 -5.53173 -3.42368
thorax -5.83974 -2.20722 7.045
lowerneck -29.4886 1.46678 -0.502731
upperneck 11.4478 2.14237 0.528044
head 8.22068 1.0816 0.585943
rclavicle 0 -7.55382e-014
rhumerus -97.4076 20.7152 -103.215
rradius 95.6343
rwrist -24.0748
rhand -34.0683 -19.9897
rfingers 7.12502
rthumb -7.24554 -49.8456
lclavicle 0 -7.55382e-014
lhumerus -20.1101 -25.1497 90.5189
lradius 109.318
lwrist 19.6063
lhand -40.1934 -43.3872
lfingers 7.12502
lthumb -13.1542 -13.8222
rfemur -47.0683 -11.1832 6.35317
rtibia 89.5043
rfoot 53.1421 76.9283
rtoes -1.2175
lfemur 11.0538 0.0255313 -35.0534
ltibia 23.2118
lfoot -12.0128 -1.75285
ltoes -8.84265
150
root -11.7704 16.2906 0.679853 119.808 76.0825 107.348
lowerback 18.1189 -1.7187 -17.4381
upperback 2.75922 -5.47599 -3.15479
thorax -5.75833 -2.18405 7.49975
lowerneck -29.7056 1.72531 -0.451756
upperneck 11.8622 2.48283 0.427792
head 8.39697 1.2274 0.599467
rclavicle 2.74323e-014 4.05521e-014
rhumerus -99.0941 20.7082 -103.064
rradius 96.0817
rwrist -24.6249
rhand -34.2822 -18.924
rfingers 7.12502
rthumb -7.45193 -48.7727
lclavicle 2.74323e-014 4.05521e-014
lhumerus -20.1822 -25.873 90.3995
lradius 110.917
lwrist 20.2929
lhand -40.2296 -43.8473
lfingers 7.12502
lthumb -13.1891 -14.2845
rfemur -47.8248 -10.3228 6.74618
rtibia 89.4438
rfoot 9.9465 60.0709
rtoes -0.616027
lfemur 12.8844 0.393493 -34.4395
ltibia 21.5472
lfoot -7.9857 -1.35142
ltoes -9.37548
151
root -11.3701 16.4033 0.678129 117.499 76.6147 105.305
lowerback 17.6327 -1.64468 -17.5724
upperback 2.76855 -5.30107 -2.92293
thorax -5.49021 -2.13129 7.76212
lowerneck -29.9152 1.99015 -0.336723
upperneck 12.1172 2.80064 0.376755
head 8.51782 1.37334 0.616278
rclavicle 5.54609e-014 5.56597e-014
rhumerus -100.512 20.6397 -102.772
rradius 97.1226
rwrist -25.5179
rhand -33.9689 -19.899
rfingers 7.12502
rthumb -7.14959 -49.7583
lclavicle 5.54609e-014 5.56597e-014
lhumerus -20.4721 -26.6723 90.1462
lradius 112.352
lwrist 20.2495
lhand -40.0873 -44.0695
lfingers 7.12502
lthumb -13.052 -14.4979
rfemur -48.1707 -9.22713 7.36651
rtibia 87.1618
rfoot -2.66886 39.2141
rtoes -0.906534
lfemur 14.8474 1.10329 -33.4528
ltibia 19.7793
lfoot -3.72015 -0.898663
ltoes -8.15915
152
root -10.9648 16.5209 0.668672 115.167 76.5861 103.232
lowerback 17.3542 -1.6268 -18.0239
upperback 2.70454 -5.31012 -2.82212
thorax -5.35405 -2.14022 8.101
lowerneck -30.1303 2.2926 -0.124728
upperneck 12.3948 3.15198 0.214387
head 8.65169 1.52586 0.58545
rclavicle 1.76918e-014 3.26007e-014
rhumerus -101.801 20.5453 -102.508
rradius 97.8594
rwrist -26.0446
rhand -33.8835 -19.9087
rfingers 7.12502
rthumb -7.06708 -49.7707
lclavicle 1.76918e-014 3.26007e-014
lhumerus -21.0644 -27.152 90.0161
lradius 113.669
lwrist 19.1011
lhand -40.1523 -44.5139
lfingers 7.12502
lthumb -13.1146 -14.9463
rfemur -48.1607 -8.67641 7.34253
rtibia 83.2328
rfoot -9.6234 17.7207
rtoes -1.63003
lfemur 16.7669 1.5645 -33.1364
ltibia 17.9
lfoot 0.530334 0.0960525
ltoes -4.07198
153
root -10.5702 16.6345 0.657635 112.738 76.7663 100.977
lowerback 17.1939 -1.51182 -18.2687
upperback 2.50895 -5.20472 -2.65583
thorax -5.47691 -2.06998 8.39762
lowerneck -30.0771 2.49014 0.00318955
upperneck 12.5031 3.3882 0.0902667
head 8.68529 1.62639 0.558951
rclavicle 5.04913e-014 4.81059e-014
rhumerus -102.868 20.3548 -102.3
rradius 98.355
rwrist -26.355
rhand -33.8535 -19.7479
rfingers 7.12502
rthumb -7.03818 -49.6109
lclavicle 5.04913e-014 4.81059e-014
lhumerus -22.1468 -28.0004 90.3353
lradius 115.062
lwrist 18.3886
lhand -40.2422 -44.619
lfingers 7.12502
lthumb -13.2012 -15.057
rfemur -48.1488 -8.11849 7.54233
rtibia 78.9989
rfoot -14.6334 -3.65457
rtoes -2.52158
lfemur 18.5224 1.86331 -32.7366
ltibia 15.9907
lfoot 4.1249 1.75239
ltoes 1.72432
154
root -10.1755 16.7359 0.652372 109.889 77.3342 98.2541
lowerback 16.547 -1.42449 -18.0967
upperback 2.55819 -4.91811 -2.54616
thorax -5.15029 -1.97664 8.33147
lowerneck -30.0388 2.66289 0.180722
upperneck 12.4153 3.54013 0.13712
head 8.6502 1.71386 0.569539
rclavicle 1.09332e-014 2.42517e-014
rhumerus -103.303 20.1611 -102.241
rradius 98.7288
rwrist -26.3892
rhand -33.7357 -20.1149
rfingers 7.12502
rthumb -6.92444 -49.9817
lclavicle 1.09332e-014 2.42517e-014
lhumerus -22.8414 -28.961 90.2063
lradius 115.986
lwrist 17.7012
lhand -39.9714 -45.9851
lfingers 7.12502
lthumb -12.9402 -16.4064
rfemur -48.1297 -7.22684 8.21563
rtibia 75.082
rfoot -14.9668 -4.08537
rtoes -2.99781
lfemur 20.2292 1.99246 -32.0836
ltibia 14.1456
lfoot 6.81018 3.25119
ltoes 6.15978
155
root -9.7766 16.8299 0.649222 107.142 77.6369 95.5916
lowerback 16.1641 -1.33234 -18.1272
upperback 2.41314 -4.74976 -2.43952
thorax -5.13795 -1.8956 8.4196
lowerneck -30.1786 2.87399 0.360988
upperneck 12.7783 3.75504 0.10125
head 8.80273 1.81427 0.568073
rclavicle -2.18663e-014 -3.10104e-014
rhumerus -103.814 20.0362 -102.158
rradius 99.0391
rwrist -26.3005
rhand -33.7588 -20.6584
rfingers 7.12502
rthumb -6.94677 -50.5244
lclavicle -2.18663e-014 -3.10104e-014
lhumerus -23.9249 -29.7765 90.3533
lradius 116.85
lwrist 16.5861
lhand -39.9779 -47.0737
lfingers 7.12502
lthumb -12.9465 -17.4954
rfemur -47.9221 -6.46791 8.63372
rtibia 71.098
rfoot -15.2596 -4.01833
rtoes -2.00414
lfemur 21.8826 1.72314 -31.8977
ltibia 12.4111
lfoot 8.80948 3.77006
ltoes 6.91455
156
root -9.38383 16.9163 0.640415 104.568 77.7649 93.0433
lowerback 15.6569 -1.28866 -18.289
upperback 2.35538 -4.62111 -2.30242
thorax -4.93362 -1.85304 8.60791
lowerneck -30.4345 3.12434 0.517997
upperneck 13.1719 4.05676 -0.0540388
head 8.98723 1.93872 0.544827
rclavicle 3.3197e-014 3.61788e-014
rhumerus -103.887 20.149 -101.913
rradius 99.3045
rwrist -26.4755
rhand -33.7979 -20.6153
rfingers 7.12502
rthumb -6.98446 -50.4801
lclavicle 3.3197e-014 3.61788e-014
lhumerus -24.973 -30.4157 90.5919
lradius 117.519
lwrist 15.1768
lhand -40.3719 -48.0969
lfingers 7.12502
lthumb -13.3263 -18.543
rfemur -47.4922 -5.91449 8.80634
rtibia 66.9672
rfoot -15.6461 -3.40045
rtoes -1.55992
lfemur 23.1794 1.12454 -32.1524
ltibia 11.2956
lfoot 8.63027 4.02345
ltoes 2.33921
